<svg xmlns="http://www.w3.org/2000/svg" width="130" height="120" shape-rendering="crispEdges" ><style  type="text/css" ><![CDATA[.st0{fill:#EE67A4;}.st1{fill:#231F20;}.st2{fill:#35BEB8;}]]></style><path  d="M0 0h120v120h-120z" class="st0" ></path><path  d="M110 62h10v20h-10z" class="st1" ></path><path  d="M120 62h10v20h-10z" class="st2" ></path><path  d="M24 33h4v4h-4zM32 33h4v4h-4zM28 37h4v4h-4zM24 41h4v4h-4zM32 41h4v4h-4zM76 33h4v4h-4zM84 33h4v4h-4zM80 37h4v4h-4zM76 41h4v4h-4zM84 41h4v4h-4zM44 53h4v4h-4zM48 57h12v4h-12zM60 53h4v4h-4zM20 81h8v4h-8zM28 77h8v4h-8zM36 73h32v4h-32zM68 77h16v4h-16zM84 81h8v4h-8zM92 85h8v4h-8z" class="st1" ></path></svg>